<svg xmlns="http://www.w3.org/2000/svg" viewBox="0 0 290.57 361.23"><defs><style>.cls-1{fill:#96ce4d;}.cls-2{fill:#fdfdfc;}.cls-3{fill:#98a6a6;}</style></defs><title>Features2Asset 1</title><g id="Layer_2" data-name="Layer 2"><g id="Layer_1-2" data-name="Layer 1"><path class="cls-1" d="M148.88,124.14c0,10.51.14,27.25.14,37.09l-6-6-7,7c0-18.36-.22-39.23-.22-57.76H90.55V217.79l-30.9,21.1-6.34-16.38-37.24,2.92L34.64,192,21.5,179.75l46-28.5L18,125.15l16.6-11.69L15.85,80.81,52.12,83c-.29-5.75-.55-10.71-.92-18.11L95.68,85.59V29.94c9.34,3.29,12.34,4.29,23.41,7.72L142.06,0l23.88,38.58,21.86-10.7V83.73c16.85-2.17,28.51-13.62,43.25-17,1,5.49,1,6.49,2.45,16.32l35.84-2.25c-6.32,13.42-13.44,20.53-18.4,31.62,8.08,8.8,6.08,6.8,12.84,13.95l-46.41,25,43.95,27.4c-5.3,6.46-6.3,7.46-10.92,14L268,225l-35.47-2.27c-5.48,10.55-3.48,6.55-8.08,15.57l-29.68-19.52V124.14Z"/><path class="cls-1" d="M103,213.23c0-32,.36-63.33.36-94.24,8.64.24,11.64.24,19.64.24,0,19.61.32,36.4.59,53.17L117,181.23v32Z"/><path class="cls-1" d="M178,205.23c9-12-11.78-60.66-4-61C174.52,174.61,178,173.23,178,205.23Z"/><line class="cls-2" x1="233.02" y1="83.23" x2="231.02" y2="67.23"/><polygon class="cls-1" points="161.02 172.22 161.02 134.22 182.02 134.22 182.02 212.22 169.86 212.22 169.86 181.22 161.02 172.22"/><path class="cls-3" d="M0,275.66H36.36q18.62,0,27.17,4.8t8.54,14.77v3.41a15.07,15.07,0,0,1-3.84,10.69q-3.83,4.14-11.71,6v.24q18,3.41,18,17.75v7.3q0,9.84-9.31,15T37.9,360.76H0Zm33.52,34.65q7.21,0,10.84-2.07T48,301.31v-4.74Q48,292,45,289.88t-9.31-2.06H24.1v22.49ZM37.9,348.6q6.35,0,9.42-1.88t3.06-6.51V332.8q0-5.83-3.61-8.09t-11.94-2.25H24.1V348.6Z"/><path class="cls-3" d="M89.37,275.66h24.1v85.1H89.37Z"/><path class="cls-3" d="M132.3,275.66h24.1V348.6h39.65v12.16H132.3Z"/><path class="cls-3" d="M258.48,275.23H211v86H258.8a20.8,20.8,0,0,0,4.91-.58c7.78-1.91,26.86-9.9,26.86-42.42,0-31.55-17.95-40-26.13-42.24A22.61,22.61,0,0,0,258.48,275.23Zm-12.64,70.95H232.52V292.43h16.94a17.25,17.25,0,0,1,8.82,2.36c7.36,4.35,10.79,10,10.79,23.44,0,13.12-3.22,18.74-11.47,24.37A20.85,20.85,0,0,1,245.84,346.18Z"/><polygon class="cls-1" points="137.53 213.22 126.02 213.22 126.02 184.22 143.28 165.72 160.02 182.72 160.02 212.72 147.47 212.72 147.47 198.72 138.02 198.72 138.02 213.22 137.53 213.22"/></g></g></svg>