<svg viewBox="0 0 797.85 273.28" xmlns="http://www.w3.org/2000/svg"><path d="M0 140.9l107.51-61.81 106.77 61.81v59.95l-106.77-62.56L0 200.85z" fill="#00aede"/><path d="M57.1 184.1l50.41 29.35 50.29-29.35 51.28 30.22-101.57 58.96L5.45 214.32z" fill="#00aede"/><path d="M0 62.43v59.82l107.14-61.68 107.14 61.68V62.43L106.77 0l-49.3 29.23V5.2H17.34v47.07z" fill="#1d3c5a"/><path d="M254.84 272.47v-35.33h14.51c5.93 0 9.75 3.44 9.75 9.01 0 4.45-3.02 7.47-6.2 8.1 3.76.58 6.89 4.5 6.89 8.69 0 5.88-3.82 9.53-10.12 9.53zm21.08-26c0-3.6-2.38-6.57-6.94-6.57h-11.12v13.08h11.12c4.55 0 6.94-2.86 6.94-6.51zm.68 16.26c0-3.6-2.49-6.99-7.42-6.99h-11.33v13.98h11.33c4.67 0 7.42-2.7 7.42-6.99zm67.76 9.74l-3.5-8.69h-18.7l-3.5 8.69h-3.5l14.46-35.33h3.76l14.46 35.33zm-12.82-32.1l-8.37 20.66h16.68zm51.73 27.12l1.96-2.28c2.28 2.6 5.98 5.14 11.07 5.14 7.2 0 9.27-4.03 9.27-7.04 0-10.38-21.19-4.98-21.19-17.32 0-5.77 5.19-9.43 11.6-9.43 5.24 0 9.27 1.85 11.97 4.98l-2.01 2.22c-2.54-3.07-6.14-4.45-10.12-4.45-4.71 0-8.26 2.7-8.26 6.51 0 9.06 21.19 4.08 21.19 17.27 0 4.55-3.02 10.01-12.55 10.01-5.83.01-10.23-2.37-12.93-5.61zm64.61 4.98v-35.33h22.4v2.75H450.9v13.08h19.02v2.75H450.9v13.98h19.39v2.75h-22.41zm91.4 0v-31.52l-12.87 31.52h-1.16l-12.92-31.52v31.52h-3.02v-35.33h4.5l12.02 29.4 11.97-29.4h4.56v35.33zm44.1 0v-35.33h22.4v2.75H586.4v13.08h19.02v2.75H586.4v13.98h19.39v2.75h-22.41zm86.68 0l-22.25-30.35v30.35h-3.02v-35.33h3.07L670 267.07v-29.93h3.02v35.33zm52.3 0V239.9h-11.55v-2.75h26.17v2.75h-11.55v32.58h-3.07zm50.01-4.98l1.96-2.28c2.28 2.6 5.98 5.14 11.07 5.14 7.21 0 9.27-4.03 9.27-7.04 0-10.38-21.19-4.98-21.19-17.32 0-5.77 5.19-9.43 11.6-9.43 5.24 0 9.27 1.85 11.97 4.98l-2.01 2.22c-2.54-3.07-6.14-4.45-10.12-4.45-4.71 0-8.26 2.7-8.26 6.51 0 9.06 21.19 4.08 21.19 17.27 0 4.55-3.02 10.01-12.55 10.01-5.83.01-10.23-2.37-12.93-5.61z" fill="#00aede"/><path d="M381.78 164.1l-7.96-23.16h-63.45l-7.96 23.16h-47.04L315.92 3.18h52.11l60.8 160.92zM341.97 44.2l-20.51 60.56h41.01zm85.95 39.56C427.92 32.61 467 .53 515.01.53c35.95 0 57.66 19.06 68.76 39.08l-34.74 18.1C543 47.09 530.7 37.2 515.01 37.2c-26.29 0-44.87 20.26-44.87 46.56s18.58 46.56 44.87 46.56c11.82 0 23.89-4.83 29.67-9.65v-12.55H508.5V71.7h77.68v63.94C568.81 154.69 545.41 167 515.01 167c-48.01 0-87.09-32.09-87.09-83.24zm327.91 80.34V59.39L715.06 164.1h-18.34L656.19 59.39V164.1h-41.5V3.18h57.66l33.53 87.34 33.78-87.34h57.66V164.1z" fill="#1d3c5a"/><path d="M254.17 198.43h543.16v4.86H254.17z" fill="#00aede"/></svg>