<?xml version="1.0" encoding="UTF-8"?>
<svg width="38px" height="38px" viewBox="0 0 38 38" version="1.1" xmlns="http://www.w3.org/2000/svg" xmlns:xlink="http://www.w3.org/1999/xlink">
    <!-- Generator: Sketch 63.1 (92452) - https://sketch.com -->
    <title>Icon_awesome-phone</title>
    <desc>Created with Sketch.</desc>
    <g id="Leap-2.0" stroke="none" stroke-width="1" fill="none" fill-rule="evenodd">
        <g id="AGM_Icons" transform="translate(-196.000000, -77.000000)" fill="#FFFFFF" fill-rule="nonzero">
            <path d="M232.1,79.6 L224.6,77.9 C223.8,77.7 223,78.1 222.6,78.9 L219.1,87 C218.8,87.7 219,88.5 219.6,89 L224,92.6 C221.4,98.2 216.8,102.7 211.2,105.4 L207.6,101 C207.1,100.4 206.3,100.2 205.6,100.5 L197.5,104 C196.7,104.3 196.3,105.2 196.5,106 L198.2,113.5 C198.4,114.3 199.1,114.8 199.9,114.8 C218.4,114.8 233.4,99.8 233.4,81.3 C233.4,81.3 233.4,81.3 233.4,81.3 C233.5,80.5 232.9,79.8 232.1,79.6 Z" id="Icon_awesome-phone"></path>
        </g>
    </g>
</svg>