<svg id="Layer_1" data-name="Layer 1" xmlns="http://www.w3.org/2000/svg" viewBox="0 0 314.92 265.79"><defs><style>.cls-1{stroke:#fff;stroke-width:10px;}.cls-1,.cls-3,.cls-4{stroke-miterlimit:10;}.cls-2{fill:#fff;}.cls-3{fill:none;}.cls-3,.cls-4{stroke:#000;stroke-width:2px;}</style></defs><title>RENOMARKLOGO</title><circle class="cls-1" cx="132.9" cy="132.9" r="127.9"/><path class="cls-2" d="M1266.91,1003.41l-17-14.43,7.2-8.49a15.71,15.71,0,0,1,3.48-3.26,5.07,5.07,0,0,1,3.25-.69,6.28,6.28,0,0,1,3.41,1.57,6.47,6.47,0,0,1,2,2.66,6.18,6.18,0,0,1,.3,3,7.83,7.83,0,0,1-.85,2.36,6.64,6.64,0,0,1,1.75-.79,6.89,6.89,0,0,1,1.59-.06,8.68,8.68,0,0,1,1.66.18l7,1.72-4.88,5.76-7.51-1.69a5.32,5.32,0,0,0-2.09-.2,2.71,2.71,0,0,0-1.45.92l-.39.45,6.91,5.86Zm-5.78-13.7,1.82-2.15a9.18,9.18,0,0,0,.91-1.54,1.73,1.73,0,0,0,.17-1.28,2.09,2.09,0,0,0-.71-1.16,2.11,2.11,0,0,0-1.7-.57,3.94,3.94,0,0,0-2,1.53l-1.9,2.24Z" transform="translate(-1205.03 -917.26)"/><path class="cls-2" d="M1268.21,969.17l14.18-10.91,2.91,3.77-8.88,6.83,2.16,2.82,8.24-6.34,2.77,3.6-8.23,6.34,2.68,3.49,9.14-7,3.08,4-14.45,11.11Z" transform="translate(-1205.03 -917.26)"/><path class="cls-2" d="M1288.46,954.78l5.78-2.35,12.18,8.37-4.64-11.43,5.83-2.37,8.4,20.67-5.83,2.37-12.11-8.3,4.61,11.34-5.82,2.37Z" transform="translate(-1205.03 -917.26)"/><path class="cls-2" d="M1313.25,954.94c0-3.65,1-6.48,3-8.51s4.71-3,8.21-3,6.37,1,8.32,3,2.92,4.79,2.92,8.38a14.13,14.13,0,0,1-1.28,6.42,9.27,9.27,0,0,1-3.68,3.89,11.85,11.85,0,0,1-6,1.4,13.33,13.33,0,0,1-6-1.21,9.28,9.28,0,0,1-3.89-3.8A13,13,0,0,1,1313.25,954.94Zm6.68,0q0,3.38,1.22,4.85a4.49,4.49,0,0,0,6.64,0q1.18-1.44,1.18-5.19a7,7,0,0,0-1.23-4.6,4.14,4.14,0,0,0-3.34-1.46,4,4,0,0,0-3.24,1.48Q1319.93,951.55,1319.93,955Z" transform="translate(-1205.03 -917.26)"/><path class="cls-2" d="M1338.42,941.38l8.76.61,2.45,13.77,4.29-13.31,8.75.6-1.53,22.26-5.46-.37,1.17-17-5.37,16.69-4.94-.34-3-17.27-1.17,17-5.46-.38Z" transform="translate(-1205.03 -917.26)"/><path class="cls-2" d="M1377.26,968.07l-7.1-2.66-2.28,3.08-6.38-2.4,15.44-18,6.82,2.56-.23,23.74L1377,971.9Zm.4-5,.58-8.35-5,6.68Z" transform="translate(-1205.03 -917.26)"/><path class="cls-2" d="M1385.36,976l12.35-18.58,9.27,6.16a15.9,15.9,0,0,1,3.64,3.08,5.1,5.1,0,0,1,1.07,3.15,7,7,0,0,1-3.58,5.81,6.15,6.15,0,0,1-3,.65,8.09,8.09,0,0,1-2.44-.56,7,7,0,0,1,1,1.65,7.15,7.15,0,0,1,.24,1.56,9.35,9.35,0,0,1,0,1.68l-.89,7.17-6.28-4.18.8-7.65a5.16,5.16,0,0,0-.06-2.1,2.71,2.71,0,0,0-1.07-1.34l-.49-.33-5,7.54Zm12.93-7.34,2.35,1.56a9.81,9.81,0,0,0,1.64.73,1.74,1.74,0,0,0,1.29,0,2,2,0,0,0,1.06-.84,2.1,2.1,0,0,0,.37-1.75,3.9,3.9,0,0,0-1.76-1.86l-2.44-1.62Z" transform="translate(-1205.03 -917.26)"/><path class="cls-2" d="M1420.88,974.13l4.27,5.14-6.48,5.39h10.95l5.68,6.83-11.52-.68-5.41,15.21-5.26-6.32,4.14-9.37-5.07-.27-4.19,3.48-4.27-5.14Z" transform="translate(-1205.03 -917.26)"/><circle class="cls-2" cx="135.33" cy="137.13" r="77.24"/><circle class="cls-3" cx="135.46" cy="137.13" r="70.85"/><circle class="cls-3" cx="132.44" cy="132.32" r="128.95"/><path class="cls-2" d="M1246.54,1052.63c0,1.93,0,3.83.13,5.69a9.76,9.76,0,0,1-.47,4.29,2.59,2.59,0,0,1-2.17,1.59l-.82.1c-1.37.17-2.33-.56-2.83-2.26h0a3.46,3.46,0,0,1-.76,2.14,2.92,2.92,0,0,1-1.81.82l-2.33.28a4.92,4.92,0,0,0-.91.19,1.7,1.7,0,0,0-.65.47c-.14-1.42-.26-2.85-.36-4.3a2.13,2.13,0,0,1,.59-.36,4.27,4.27,0,0,1,1-.16l2.42-.2a1.43,1.43,0,0,0,1.24-.68,4.21,4.21,0,0,0,.26-2l-.06-1.42-5.69.24c0-1.46-.07-2.93-.07-4.42Zm-5.58,5.57a3.73,3.73,0,0,0,.41,1.78,1.11,1.11,0,0,0,1.12.5l1-.08a1.2,1.2,0,0,0,1-.56,2.74,2.74,0,0,0,.25-1.51c0-.58,0-1.17-.07-1.76l-3.8.16C1240.92,1057.22,1240.93,1057.71,1241,1058.2Z" transform="translate(-1205.03 -917.26)"/><path class="cls-2" d="M1247.36,1066.5c.4,3.26.94,6.43,1.62,9.49l-1.85.48q-.66-3-1.14-6.06l-3.47.66c.27,1.7.57,3.38.91,5l-1.85.46c-.35-1.68-.66-3.38-.93-5.12l-4,.77c.36,2.28.78,4.5,1.26,6.68l-1.85.48q-1.15-5.25-1.85-10.86Z" transform="translate(-1205.03 -917.26)"/><path class="cls-2" d="M1249.45,1078c.33,1.38.7,2.75,1.09,4.09-2.23,1.9-4.43,3.87-6.57,5.91l0,.06,7.53-2.82q.46,1.39,1,2.76l-12.44,5.11c-.44-1.2-.86-2.42-1.26-3.65q3.9-3.85,8-7.38l0-.06-9.32,3c-.31-1.1-.6-2.22-.87-3.35Z" transform="translate(-1205.03 -917.26)"/><path class="cls-2" d="M1242.15,1096.65a2.86,2.86,0,0,1,1.75-2.34l6.48-2.85a2.84,2.84,0,0,1,2.77.17,8.42,8.42,0,0,1,3,6.53,3,3,0,0,1-1.61,2.33l-6.17,3.52a2.68,2.68,0,0,1-2.82,0,7,7,0,0,1-2.57-3.23A7.48,7.48,0,0,1,1242.15,1096.65Zm4.54,4.32,6.52-3.43c.79-.41.93-1.11.46-2.12s-1.09-1.34-1.89-1l-6.62,3.2c-.8.38-1,1.14-.44,2.26S1245.91,1101.38,1246.69,1101Z" transform="translate(-1205.03 -917.26)"/><path class="cls-2" d="M1258,1100.08c.51.91,1,1.81,1.57,2.69q-3.91,3.68-7.68,7.52l0,0c3.31-1.31,6.59-2.7,9.83-4.14.52.77,1,1.53,1.6,2.28q-6.3,2.85-12.79,5.32-1.29-1.92-2.5-3.92Q1252.89,1104.81,1258,1100.08Z" transform="translate(-1205.03 -917.26)"/><path class="cls-2" d="M1265.21,1111c.83,1.06,1.69,2.1,2.57,3.12q-4.1,5.6-7.87,11.49c-.77-.82-1.53-1.67-2.28-2.52.54-.75,1.09-1.49,1.64-2.22l0,0c-.82-.95-1.63-1.93-2.41-2.93-.82.4-1.64.78-2.46,1.16-.65-.83-1.29-1.69-1.92-2.55Q1258.95,1114,1265.21,1111Zm-4.83,8.4q2.07-2.73,4.22-5.39l0,0c-2,1.07-4,2.13-6,3.15C1259.12,1117.86,1259.74,1118.62,1260.38,1119.37Z" transform="translate(-1205.03 -917.26)"/><path class="cls-2" d="M1270.27,1119.61c-.74-.75-1.47-1.51-2.18-2.28l1.42-1.31a84.92,84.92,0,0,0,6.54,6.34l-1.29,1.43c-.79-.68-1.56-1.38-2.33-2.09l-8,8.37c-.82-.76-1.62-1.54-2.42-2.34Z" transform="translate(-1205.03 -917.26)"/><path class="cls-2" d="M1269.51,1133.63a2.78,2.78,0,0,1,.66-2.73l4.68-5.35a3.09,3.09,0,0,1,2.54-1.15,5.64,5.64,0,0,1,3.16,1.36,5.45,5.45,0,0,1,2.12,2.64,2.94,2.94,0,0,1-.52,2.69l-4.14,5.76a3,3,0,0,1-2.54,1.3,6.39,6.39,0,0,1-3.57-1.51A6.22,6.22,0,0,1,1269.51,1133.63Zm5.77,1.46,4.49-5.85c.54-.7.39-1.35-.42-2s-1.5-.6-2.07.09l-4.68,5.7c-.57.68-.4,1.38.5,2.07S1274.74,1135.79,1275.28,1135.09Z" transform="translate(-1205.03 -917.26)"/><path class="cls-2" d="M1285.74,1129.63c1.21.78,2.44,1.53,3.68,2.25a5.93,5.93,0,0,1,2.49,2.25,2.68,2.68,0,0,1-.22,2.52l-.41.72a2.55,2.55,0,0,1-3.09,1.36l0,0a2.37,2.37,0,0,1,.95,1.58,3.35,3.35,0,0,1-.51,1.87l-1.15,2.07a5.07,5.07,0,0,0-.4.84,1.66,1.66,0,0,0-.08.75c-1-.51-2-1-3-1.59a2.45,2.45,0,0,1,.11-.65,5.53,5.53,0,0,1,.48-.92l1.27-2.11a1.54,1.54,0,0,0,.27-1.32,2.45,2.45,0,0,0-1.13-1.08l-.94-.55-3.12,4.86c-1-.57-1.89-1.16-2.83-1.76Q1281.93,1135.19,1285.74,1129.63Zm.32,7a2.35,2.35,0,0,0,1.37.41,1.28,1.28,0,0,0,1-.71l.53-.89a1.34,1.34,0,0,0,.23-1.09,1.75,1.75,0,0,0-.83-.85l-1.16-.68-2.08,3.24Z" transform="translate(-1205.03 -917.26)"/><path class="cls-2" d="M1289.74,1146.47a2.72,2.72,0,0,1,.07-2.74c.12-.23.24-.46.37-.68.9.45,1.81.88,2.73,1.3l-.41.82c-.39.78-.07,1.41,1,1.87a2.15,2.15,0,0,0,1.3.21,1.24,1.24,0,0,0,.82-.77,2.08,2.08,0,0,0,.09-1.57,10,10,0,0,0-1.28-2.25,9.17,9.17,0,0,1-1.49-3,3.33,3.33,0,0,1,2.49-3.87,5.65,5.65,0,0,1,3.33.56,5.11,5.11,0,0,1,2.56,2,3,3,0,0,1,0,2.69l-.22.51c-.89-.34-1.77-.69-2.65-1.06l.29-.63a1.22,1.22,0,0,0,.07-1.06,1.68,1.68,0,0,0-.88-.72c-.91-.4-1.55-.22-1.93.54a2,2,0,0,0-.09,1.46,8.34,8.34,0,0,0,1.25,2.21,10.56,10.56,0,0,1,1.65,2.93,3.4,3.4,0,0,1-.16,2.3,3,3,0,0,1-2.17,1.86,6.35,6.35,0,0,1-3.81-.63A5.74,5.74,0,0,1,1289.74,1146.47Z" transform="translate(-1205.03 -917.26)"/><path class="cls-2" d="M1308.37,1140.17c1.32.41,2.65.8,4,1.15-.31,3.22-.55,6.44-.73,9.68h0q2.27-4.37,4.33-8.78c1.36.3,2.72.58,4.08.83l-2.67,13.06c-1-.19-2.07-.4-3.1-.61q1.15-4.92,2.32-9.83h-.05q-2.23,4.68-4.7,9.29c-.91-.21-1.81-.43-2.71-.67q.24-5.16.7-10.28l-.05,0-3,9.65c-.93-.27-1.86-.54-2.79-.83Z" transform="translate(-1205.03 -917.26)"/><path class="cls-2" d="M1324.57,1143.78c1.31.18,2.62.33,3.94.46q.77,6.77,2,13.52c-1.12-.08-2.23-.17-3.34-.28l-.3-2.68v0c-1.23-.13-2.46-.28-3.68-.44-.33.83-.66,1.66-1,2.49-1-.14-2-.3-3.06-.47Q1322.06,1150.15,1324.57,1143.78Zm2.12,9.22c-.22-2.23-.4-4.45-.55-6.68h-.06c-.72,2.13-1.47,4.24-2.26,6.35C1324.78,1152.79,1325.73,1152.9,1326.69,1153Z" transform="translate(-1205.03 -917.26)"/><path class="cls-2" d="M1333,1144.59c1.44.08,2.88.13,4.33.14a6.16,6.16,0,0,1,3.31.74,2.69,2.69,0,0,1,1.12,2.28l0,.82a2.43,2.43,0,0,1-2,2.66v0a2.44,2.44,0,0,1,1.63.9,3.37,3.37,0,0,1,.54,1.87c0,.78,0,1.56.08,2.33a5.17,5.17,0,0,0,.09.92,1.57,1.57,0,0,0,.33.69c-1.14,0-2.27.06-3.41.06a2.19,2.19,0,0,1-.25-.61,5.77,5.77,0,0,1-.06-1V1154a1.6,1.6,0,0,0-.45-1.28,2.57,2.57,0,0,0-1.54-.37l-1.09,0c-.06,1.9-.11,3.8-.17,5.7-1.11,0-2.23-.07-3.34-.13Zm3.88,5.84a2.44,2.44,0,0,0,1.4-.31,1.23,1.23,0,0,0,.46-1.08v-1a1.33,1.33,0,0,0-.37-1,1.79,1.79,0,0,0-1.15-.33l-1.36,0c0,1.26-.07,2.53-.11,3.8Z" transform="translate(-1205.03 -917.26)"/><path class="cls-2" d="M1343.85,1144.61c1,0,2-.11,2.92-.19.16,1.86.33,3.73.49,5.59q1.73-3,3.21-6c1-.11,1.93-.23,2.9-.37-.89,1.77-1.84,3.54-2.86,5.29q2.37,4,5,7.85c-1.15.16-2.3.31-3.46.45q-1.78-2.79-3.41-5.62l-1.11,1.79c.12,1.41.25,2.82.37,4.23-1.11.08-2.22.16-3.34.21Z" transform="translate(-1205.03 -917.26)"/><path class="cls-2" d="M1363,1154.8a2.85,2.85,0,0,1-1.82-2.16c-.51-2.28-1-4.56-1.54-6.84a2.87,2.87,0,0,1,.58-2.64,5.56,5.56,0,0,1,3-1.6,5.75,5.75,0,0,1,3.43,0,3.1,3.1,0,0,1,1.88,2l2.19,6.67a2.69,2.69,0,0,1-.46,2.72,6.25,6.25,0,0,1-3.38,1.81A6.54,6.54,0,0,1,1363,1154.8Zm4.64-3.52c-.69-2.34-1.37-4.67-2.06-7-.25-.84-.87-1.13-1.86-.88s-1.39.79-1.17,1.64l1.83,7c.22.85.88,1.15,2,.88S1367.91,1152.12,1367.66,1151.28Z" transform="translate(-1205.03 -917.26)"/><path class="cls-2" d="M1369.52,1140q3.68-1.17,7.23-2.64l.79,1.75q-2.26.93-4.56,1.74l1.35,3.48c1.25-.44,2.49-.91,3.73-1.4l.76,1.75c-1.25.5-2.52,1-3.8,1.43.71,1.81,1.41,3.63,2.12,5.44-1.05.37-2.1.72-3.16,1.06Q1371.76,1146.29,1369.52,1140Z" transform="translate(-1205.03 -917.26)"/><path class="cls-2" d="M1382.36,1135.61c2.27-1.1,4.49-2.3,6.66-3.58l1,1.54q-2.1,1.25-4.27,2.37c.56,1,1.11,2,1.66,2.94,1.19-.63,2.36-1.27,3.52-1.94l1,1.55c-1.18.68-2.37,1.34-3.58,2l1.92,3.41q2.37-1.24,4.68-2.61c.32.52.65,1,1,1.54-2.46,1.46-5,2.82-7.57,4.07Z" transform="translate(-1205.03 -917.26)"/><path class="cls-2" d="M1396.16,1134.92q-3.15-1.67-6.16-3.48c.83-.51,1.66-1,2.48-1.57,1.3.79,2.63,1.55,4,2.3l0,0c-.26-1.49-.55-3-.86-4.45.71-.51,1.42-1,2.11-1.57q.75,3.38,1.3,6.82,3.36,1.62,6.87,3c-.89.68-1.78,1.35-2.68,2-1.52-.73-3-1.5-4.49-2.29l0,0c.25,1.63.47,3.27.65,4.92q-1.24.81-2.52,1.59Q1396.61,1138.54,1396.16,1134.92Z" transform="translate(-1205.03 -917.26)"/><path class="cls-2" d="M1407.19,1134.17a2.66,2.66,0,0,1-2.4-1.06l-4.37-5.31a2.79,2.79,0,0,1-.65-2.46,5.19,5.19,0,0,1,1.82-2.59,5.32,5.32,0,0,1,2.84-1.45,2.84,2.84,0,0,1,2.41.93l1,1c-.67.65-1.35,1.27-2,1.89-.33-.36-.67-.72-1-1.09-.55-.58-1.17-.55-1.88.07s-.82,1.23-.3,1.83l4.71,5.39c.51.59,1.17.55,2-.14s.9-1.32.37-1.89l-1.33-1.44c.71-.64,1.42-1.29,2.11-2,.42.43.85.86,1.27,1.3a2.59,2.59,0,0,1,.76,2.48,5.73,5.73,0,0,1-2,2.93A5.83,5.83,0,0,1,1407.19,1134.17Z" transform="translate(-1205.03 -917.26)"/><path class="cls-2" d="M1406,1118.85q2.71-2.71,5.21-5.71l1.4,1.17c-1.06,1.29-2.17,2.54-3.3,3.76l2.49,2.3c.93-1,1.84-2,2.73-3.07l1.4,1.19c-.91,1.06-1.84,2.11-2.79,3.12l2.9,2.68q1.86-2,3.61-4.11l1.41,1.17q-2.82,3.4-5.91,6.49Z" transform="translate(-1205.03 -917.26)"/><path class="cls-2" d="M1412.35,1111.78q.89-1.11,1.74-2.28l8.78,6.62c1.05-1.42,2.06-2.87,3-4.37l1.52,1c-1.59,2.44-3.29,4.79-5.07,7Z" transform="translate(-1205.03 -917.26)"/><path class="cls-2" d="M1417.63,1104.31c.52-.82,1-1.66,1.51-2.51l9.37,5.72c.91-1.56,1.77-3.16,2.6-4.8l1.61.87q-2,4-4.37,7.74Z" transform="translate(-1205.03 -917.26)"/><path class="cls-2" d="M1422.16,1096.1q1.78-3.7,3.26-7.68l1.68.69c-.63,1.71-1.31,3.39-2,5l3,1.46c.59-1.34,1.15-2.71,1.69-4.11l1.67.71c-.54,1.43-1.12,2.82-1.72,4.19l3.54,1.7c.78-1.79,1.52-3.63,2.21-5.5l1.69.69c-1.11,3-2.35,5.92-3.7,8.73Z" transform="translate(-1205.03 -917.26)"/><path class="cls-2" d="M1426.06,1086.62c.43-1.24.83-2.5,1.21-3.78,2.69-.17,5.4-.43,8.11-.79l0-.07-7.28-2.2q.38-1.4.69-2.82l12.25,3.3c-.29,1.25-.59,2.47-.91,3.69-3.33.5-6.66.87-10,1.09l0,.06,8.75,3.1q-.48,1.53-1,3Z" transform="translate(-1205.03 -917.26)"/><path class="cls-2" d="M1441.28,1076.08a2.36,2.36,0,0,1-2.5.85l-6.61-1.6a2.73,2.73,0,0,1-2-1.78,9.85,9.85,0,0,1,1.13-7.42,2.52,2.52,0,0,1,2.42-1l1.32.17c-.12,1.15-.25,2.28-.41,3.4l-1.44-.24c-.77-.13-1.23.38-1.4,1.52s.11,1.78.87,1.94l6.92,1.42c.76.16,1.25-.38,1.44-1.64s-.11-2-.87-2.08l-1.9-.32c.15-1.16.3-2.34.42-3.52l1.77.23a2.55,2.55,0,0,1,2.11,1.77,8.6,8.6,0,0,1,.23,4.36A7.78,7.78,0,0,1,1441.28,1076.08Z" transform="translate(-1205.03 -917.26)"/><path class="cls-2" d="M1431,1062.51q.4-4.8.41-9.88h1.8q0,3.28-.17,6.44l3.33.23c.09-1.73.15-3.49.16-5.28l1.8,0c0,1.81-.07,3.61-.17,5.37l3.87.27q.18-3.46.18-7.06h1.8c0,3.85-.16,7.58-.46,11.22Z" transform="translate(-1205.03 -917.26)"/><path class="cls-2" d="M1465.63,1018.07c-16,5.18-32.05,11.36-46.76,19.66q-6.09,3.43-11.89,7.36c-1.59,1.08-.09,3.68,1.51,2.59,13.81-9.32,28.89-16.24,44.47-22q6.69-2.48,13.47-4.67c1.83-.59,1-3.49-.8-2.89Z" transform="translate(-1205.03 -917.26)"/><path class="cls-2" d="M1399.26,1018.8c3.7-1.89,7.71-2.92,11.61-4.31s7.76-2.89,11.75-4.12a156.21,156.21,0,0,1,24.6-5.81c4.71-.64,9.41-1.5,14.18-1.06,1.92.18,1.91-2.82,0-3-4.29-.4-8.55.25-12.79.87s-8.53,1.28-12.75,2.26a188,188,0,0,0-24.71,7.58c-4.47,1.7-9.12,2.82-13.41,5-1.72.88-.2,3.47,1.52,2.6Z" transform="translate(-1205.03 -917.26)"/><path class="cls-2" d="M1471.37,995.4a1.5,1.5,0,0,0,0-3,1.5,1.5,0,0,0,0,3Z" transform="translate(-1205.03 -917.26)"/><path class="cls-4" d="M1294.06,1014.25l5.27-5s6.13,53.18,28.77,48.9c8.12-1.54,56.8-43.86,127.8-53.93,0,0,35.09-1.07,56.71,0-46.1,10.46-104.77,27.56-167.11,86.33,0,0-.22,3.88.08,4.33a7.65,7.65,0,0,0,1.86,2,9.87,9.87,0,0,0,3.09-.15,1.79,1.79,0,0,1,1.65.66c1.82,2.25,6.75,8.56,6.46,10.31-.36,2.14-18.44,14.23-20.75,13.87s-8.58-8.57-8.75-11.25a2.34,2.34,0,0,1,1.74-2.41c1.94-.68-1.86-6.09-3.13-5.75s-3,.93-3.72.34S1289.34,1048.54,1294.06,1014.25Z" transform="translate(-1205.03 -917.26)"/><path d="M1373.13,1106.4v-6.18h-1.94v-.83h4.66v.83h-1.95v6.18Z" transform="translate(-1205.03 -917.26)"/><path d="M1376.65,1106.4v-7h1.17l1.39,5c.13.46.23.81.28,1,.07-.26.17-.63.32-1.12l1.4-4.88h1v7h-.75v-5.86l-1.71,5.86h-.7l-1.7-6v6Z" transform="translate(-1205.03 -917.26)"/></svg>